Green Lantern 2011 TS x264 Feel-Free


Genre:Action | Crime | Sci-Fi
Language:English
IMDb:http://www.imdb.com/title/tt1133985/
Source:Green Lantern DVD TS/IMAGINE Thanks!

Format : MPEG-4
Format profile : Base Media
Codec ID : isom
File size : 1.17 GiB
Duration : 1h 41mn
Overall bit rate : 1 661 Kbps

Video
ID : 1
Format : AVC
Format/Info : Advanced Video Codec
Format profile : High@L4.1
Format settings, CABAC : Yes
Format settings, ReFrames : 3 frames
Codec ID : avc1
Codec ID/Info : Advanced Video Coding
Duration : 1h 41mn
Bit rate mode : Variable
Bit rate : 1 445 Kbps
Maximum bit rate : 4 611 Kbps
Width : 720 pixels
Height : 320 pixels
Display aspect ratio : 2.25:1
Frame rate mode : Constant
Frame rate : 25.000 fps
Color space : YUV
Chroma subsampling : 4:2:0
Bit depth : 8 bits
Scan type : Progressive
Bits/(Pixel*Frame) : 0.251
Stream size : 1.01 GiB (86%)
Writing library : x264

Audio
ID : 2
Format : AAC
Format/Info : Advanced Audio Codec
Format version : Version 4
Format profile : LC
Format settings, SBR : No
Codec ID : 40
Duration : 1h 41mn
Bit rate mode : Variable
Bit rate : 224 Kbps
Maximum bit rate : 336 Kbps
Channel(s) : 2 channels
Channel positions : Front: L R
Sampling rate : 44.1 KHz
Stream size : 162 MiB (13%)


Plot:

A test pilot is granted a mystical green ring that bestows him with otherworldly powers, as well as membership into an intergalactic squadron tasked with keeping peace within the universe.


Screens:

 
http://leetleech.org/images/84705179166813308570.png
 
http://leetleech.org/images/33608776464281587674.png
 
http://leetleech.org/images/75775011769828106303.png


ENJOY!